<svg width="158" height="27" viewBox="0 0 158 27" fill="none" xmlns="http://www.w3.org/2000/svg">
<path d="M9.134 7.164V11.724H20.23V18.488H9.134V27H0.166V0.399998H21.788V7.164H9.134ZM24.6211 0.399998H33.5891V27H24.6211V0.399998ZM37.9062 0.399998H51.0162C53.9802 0.399998 56.5896 0.944665 58.8442 2.034C61.1242 3.098 62.8849 4.63067 64.1262 6.632C65.3929 8.63333 66.0262 10.9893 66.0262 13.7C66.0262 16.4107 65.3929 18.7667 64.1262 20.768C62.8849 22.7693 61.1242 24.3147 58.8442 25.404C56.5896 26.468 53.9802 27 51.0162 27H37.9062V0.399998ZM50.6362 20.008C52.5616 20.008 54.0942 19.4633 55.2342 18.374C56.3996 17.2593 56.9822 15.7013 56.9822 13.7C56.9822 11.6987 56.3996 10.1533 55.2342 9.064C54.0942 7.94933 52.5616 7.392 50.6362 7.392H46.8742V20.008H50.6362ZM90.5808 13.092C92.1514 13.6747 93.3674 14.5233 94.2288 15.638C95.0901 16.7527 95.5208 18.0953 95.5208 19.666C95.5208 21.9967 94.5581 23.808 92.6328 25.1C90.7074 26.3667 87.9208 27 84.2728 27H69.3008V0.399998H83.5128C87.0594 0.399998 89.7321 1.03333 91.5308 2.3C93.3548 3.56667 94.2668 5.25133 94.2668 7.354C94.2668 8.59533 93.9501 9.71 93.3168 10.698C92.7088 11.686 91.7968 12.484 90.5808 13.092ZM78.1168 6.67V10.622H82.2968C84.2474 10.622 85.2228 9.96333 85.2228 8.646C85.2228 7.32867 84.2474 6.67 82.2968 6.67H78.1168ZM83.5128 20.73C85.4888 20.73 86.4768 20.0333 86.4768 18.64C86.4768 17.2467 85.4888 16.55 83.5128 16.55H78.1168V20.73H83.5128ZM116.817 22.364H106.709L104.923 27H95.8034L107.431 0.399998H116.247L127.875 27H118.603L116.817 22.364ZM114.347 15.904L111.763 9.216L109.179 15.904H114.347ZM140.137 18.184L138.123 20.426V27H129.307V0.399998H138.123V10.052L146.863 0.399998H156.629L145.989 12.104L157.161 27H146.787L140.137 18.184Z" fill="white"/>
<path d="M9.134 7.164V4.164H6.134V7.164H9.134ZM9.134 11.724H6.134V14.724H9.134V11.724ZM20.23 11.724H23.23V8.724H20.23V11.724ZM20.23 18.488V21.488H23.23V18.488H20.23ZM9.134 18.488V15.488H6.134V18.488H9.134ZM9.134 27V30H12.134V27H9.134ZM0.166 27H-2.834V30H0.166V27ZM0.166 0.399998V-2.6H-2.834V0.399998H0.166ZM21.788 0.399998H24.788V-2.6H21.788V0.399998ZM21.788 7.164V10.164H24.788V7.164H21.788ZM6.134 7.164V11.724H12.134V7.164H6.134ZM9.134 14.724H20.23V8.724H9.134V14.724ZM17.23 11.724V18.488H23.23V11.724H17.23ZM20.23 15.488H9.134V21.488H20.23V15.488ZM6.134 18.488V27H12.134V18.488H6.134ZM9.134 24H0.166V30H9.134V24ZM3.166 27V0.399998H-2.834V27H3.166ZM0.166 3.4H21.788V-2.6H0.166V3.4ZM18.788 0.399998V7.164H24.788V0.399998H18.788ZM21.788 4.164H9.134V10.164H21.788V4.164ZM24.6211 0.399998V-2.6H21.6211V0.399998H24.6211ZM33.5891 0.399998H36.5891V-2.6H33.5891V0.399998ZM33.5891 27V30H36.5891V27H33.5891ZM24.6211 27H21.6211V30H24.6211V27ZM24.6211 3.4H33.5891V-2.6H24.6211V3.4ZM30.5891 0.399998V27H36.5891V0.399998H30.5891ZM33.5891 24H24.6211V30H33.5891V24ZM27.6211 27V0.399998H21.6211V27H27.6211ZM37.9062 0.399998V-2.6H34.9062V0.399998H37.9062ZM58.8442 2.034L57.5391 4.73524L57.5573 4.74402L57.5756 4.75255L58.8442 2.034ZM64.1262 6.632L61.5768 8.21329L61.584 8.22487L61.5913 8.23639L64.1262 6.632ZM64.1262 20.768L61.5913 19.1636L61.584 19.1751L61.5768 19.1867L64.1262 20.768ZM58.8442 25.404L60.1246 28.1171L60.1311 28.114L60.1375 28.1109L58.8442 25.404ZM37.9062 27H34.9062V30H37.9062V27ZM55.2342 18.374L57.3068 20.543L57.3079 20.5419L55.2342 18.374ZM55.2342 9.064L53.1369 11.209L53.161 11.2326L53.1856 11.2556L55.2342 9.064ZM46.8742 7.392V4.392H43.8742V7.392H46.8742ZM46.8742 20.008H43.8742V23.008H46.8742V20.008ZM37.9062 3.4H51.0162V-2.6H37.9062V3.4ZM51.0162 3.4C53.6106 3.4 55.7596 3.87546 57.5391 4.73524L60.1493 -0.667245C57.4196 -1.98613 54.3499 -2.6 51.0162 -2.6V3.4ZM57.5756 4.75255C59.3651 5.58764 60.6641 6.74179 61.5768 8.21329L66.6757 5.05071C65.1057 2.51955 62.8834 0.608358 60.1129 -0.684549L57.5756 4.75255ZM61.5913 8.23639C62.5122 9.69135 63.0262 11.4733 63.0262 13.7H69.0262C69.0262 10.5053 68.2737 7.57531 66.6612 5.02761L61.5913 8.23639ZM63.0262 13.7C63.0262 15.9267 62.5122 17.7086 61.5913 19.1636L66.6612 22.3724C68.2737 19.8247 69.0262 16.8947 69.0262 13.7H63.0262ZM61.5768 19.1867C60.6602 20.6646 59.3526 21.8363 57.5509 22.6971L60.1375 28.1109C62.8958 26.7931 65.1096 24.8741 66.6757 22.3493L61.5768 19.1867ZM57.5639 22.6909C55.7782 23.5336 53.6202 24 51.0162 24V30C54.3403 30 57.4009 29.4024 60.1246 28.1171L57.5639 22.6909ZM51.0162 24H37.9062V30H51.0162V24ZM40.9062 27V0.399998H34.9062V27H40.9062ZM50.6362 23.008C53.1532 23.008 55.4906 22.2785 57.3068 20.543L53.1617 16.205C52.6979 16.6482 51.9699 17.008 50.6362 17.008V23.008ZM57.3079 20.5419C59.2015 18.7307 59.9822 16.3097 59.9822 13.7H53.9822C53.9822 15.093 53.5977 15.788 53.1606 16.2061L57.3079 20.5419ZM59.9822 13.7C59.9822 11.0935 59.2023 8.66662 57.2829 6.87242L53.1856 11.2556C53.5969 11.64 53.9822 12.3039 53.9822 13.7H59.9822ZM57.3316 6.91898C55.5183 5.14599 53.1723 4.392 50.6362 4.392V10.392C51.9508 10.392 52.6702 10.7527 53.1369 11.209L57.3316 6.91898ZM50.6362 4.392H46.8742V10.392H50.6362V4.392ZM43.8742 7.392V20.008H49.8742V7.392H43.8742ZM46.8742 23.008H50.6362V17.008H46.8742V23.008ZM90.5808 13.092L89.2391 10.4087L83.0559 13.5003L89.5373 15.9047L90.5808 13.092ZM94.2288 15.638L96.6026 13.8037V13.8037L94.2288 15.638ZM92.6328 25.1L94.2816 27.6063L94.2931 27.5987L94.3044 27.5911L92.6328 25.1ZM69.3008 27H66.3008V30H69.3008V27ZM69.3008 0.399998V-2.6H66.3008V0.399998H69.3008ZM91.5308 2.3L89.8034 4.75282L89.8115 4.75849L89.8196 4.76411L91.5308 2.3ZM93.3168 10.698L90.7911 9.079L90.7762 9.10222L90.7618 9.12571L93.3168 10.698ZM78.1168 6.67V3.67H75.1168V6.67H78.1168ZM78.1168 10.622H75.1168V13.622H78.1168V10.622ZM78.1168 16.55V13.55H75.1168V16.55H78.1168ZM78.1168 20.73H75.1168V23.73H78.1168V20.73ZM89.5373 15.9047C90.6824 16.3295 91.397 16.8798 91.8549 17.4723L96.6026 13.8037C95.3379 12.1669 93.6204 11.0198 91.6242 10.2793L89.5373 15.9047ZM91.8549 17.4723C92.2637 18.0013 92.5208 18.6787 92.5208 19.666H98.5208C98.5208 17.512 97.9165 15.504 96.6026 13.8037L91.8549 17.4723ZM92.5208 19.666C92.5208 21.0031 92.051 21.8775 90.9611 22.6089L94.3044 27.5911C97.0652 25.7385 98.5208 22.9903 98.5208 19.666H92.5208ZM90.9839 22.5938C89.7569 23.401 87.648 24 84.2728 24V30C88.1936 30 91.658 29.3323 94.2816 27.6063L90.9839 22.5938ZM84.2728 24H69.3008V30H84.2728V24ZM72.3008 27V0.399998H66.3008V27H72.3008ZM69.3008 3.4H83.5128V-2.6H69.3008V3.4ZM83.5128 3.4C86.788 3.4 88.7346 4.00015 89.8034 4.75282L93.2581 -0.152818C90.7296 -1.93349 87.3308 -2.6 83.5128 -2.6V3.4ZM89.8196 4.76411C90.8899 5.50739 91.2668 6.2978 91.2668 7.354H97.2668C97.2668 4.20487 95.8196 1.62594 93.242 -0.164111L89.8196 4.76411ZM91.2668 7.354C91.2668 8.05615 91.0965 8.60263 90.7911 9.079L95.8424 12.317C96.8037 10.8174 97.2668 9.13451 97.2668 7.354H91.2668ZM90.7618 9.12571C90.494 9.56079 90.0423 10.0071 89.2391 10.4087L91.9224 15.7753C93.5512 14.9609 94.9235 13.8112 95.8717 12.2703L90.7618 9.12571ZM75.1168 6.67V10.622H81.1168V6.67H75.1168ZM78.1168 13.622H82.2968V7.622H78.1168V13.622ZM82.2968 13.622C83.5157 13.622 84.9573 13.4333 86.1702 12.6142C87.593 11.6534 88.2228 10.1621 88.2228 8.646H82.2228C82.2228 8.60399 82.2317 8.42178 82.3497 8.18267C82.4743 7.93038 82.6546 7.7483 82.8123 7.64183C82.9501 7.54876 83.0149 7.54993 82.9181 7.57174C82.8219 7.59339 82.6251 7.622 82.2968 7.622V13.622ZM88.2228 8.646C88.2228 7.12987 87.593 5.63865 86.1702 4.67783C84.9573 3.85869 83.5157 3.67 82.2968 3.67V9.67C82.6251 9.67 82.8219 9.69861 82.9181 9.72026C83.0149 9.74207 82.9501 9.74324 82.8123 9.65017C82.6546 9.54369 82.4743 9.36162 82.3497 9.10933C82.2317 8.87022 82.2228 8.68801 82.2228 8.646H88.2228ZM82.2968 3.67H78.1168V9.67H82.2968V3.67ZM83.5128 23.73C84.7618 23.73 86.2349 23.5263 87.4646 22.6593C88.8861 21.6569 89.4768 20.1407 89.4768 18.64H83.4768C83.4768 18.6346 83.4784 18.4857 83.5793 18.2722C83.6875 18.0434 83.8509 17.8658 84.007 17.7557C84.1441 17.659 84.2127 17.6579 84.1231 17.679C84.0327 17.7002 83.8401 17.73 83.5128 17.73V23.73ZM89.4768 18.64C89.4768 17.1393 88.8861 15.6231 87.4646 14.6207C86.2349 13.7537 84.7618 13.55 83.5128 13.55V19.55C83.8401 19.55 84.0327 19.5798 84.1231 19.601C84.2127 19.6221 84.1441 19.621 84.007 19.5243C83.8509 19.4142 83.6875 19.2366 83.5793 19.0078C83.4784 18.7943 83.4768 18.6454 83.4768 18.64H89.4768ZM83.5128 13.55H78.1168V19.55H83.5128V13.55ZM75.1168 16.55V20.73H81.1168V16.55H75.1168ZM78.1168 23.73H83.5128V17.73H78.1168V23.73ZM116.817 22.364L119.617 21.2855L118.877 19.364H116.817V22.364ZM106.709 22.364V19.364H104.65L103.91 21.2855L106.709 22.364ZM104.923 27V30H106.983L107.723 28.0785L104.923 27ZM95.8034 27L93.0546 25.7984L91.2178 30H95.8034V27ZM107.431 0.399998V-2.6H105.469L104.683 -0.801634L107.431 0.399998ZM116.247 0.399998L118.996 -0.801634L118.21 -2.6H116.247V0.399998ZM127.875 27V30H132.461L130.624 25.7984L127.875 27ZM118.603 27L115.804 28.0785L116.544 30H118.603V27ZM114.347 15.904V18.904H118.723L117.146 14.8228L114.347 15.904ZM111.763 9.216L114.562 8.1348L111.763 0.891898L108.965 8.1348L111.763 9.216ZM109.179 15.904L106.381 14.8228L104.804 18.904H109.179V15.904ZM116.817 19.364H106.709V25.364H116.817V19.364ZM103.91 21.2855L102.124 25.9215L107.723 28.0785L109.509 23.4425L103.91 21.2855ZM104.923 24H95.8034V30H104.923V24ZM98.5522 28.2016L110.18 1.60163L104.683 -0.801634L93.0546 25.7984L98.5522 28.2016ZM107.431 3.4H116.247V-2.6H107.431V3.4ZM113.499 1.60163L125.127 28.2016L130.624 25.7984L118.996 -0.801634L113.499 1.60163ZM127.875 24H118.603V30H127.875V24ZM121.403 25.9215L119.617 21.2855L114.018 23.4425L115.804 28.0785L121.403 25.9215ZM117.146 14.8228L114.562 8.1348L108.965 10.2972L111.549 16.9852L117.146 14.8228ZM108.965 8.1348L106.381 14.8228L111.978 16.9852L114.562 10.2972L108.965 8.1348ZM109.179 18.904H114.347V12.904H109.179V18.904ZM140.137 18.184L142.532 16.3774L140.339 13.47L137.905 16.1792L140.137 18.184ZM138.123 20.426L135.891 18.4212L135.123 19.2764V20.426H138.123ZM138.123 27V30H141.123V27H138.123ZM129.307 27H126.307V30H129.307V27ZM129.307 0.399998V-2.6H126.307V0.399998H129.307ZM138.123 0.399998H141.123V-2.6H138.123V0.399998ZM138.123 10.052H135.123V17.8345L140.346 12.0657L138.123 10.052ZM146.863 0.399998V-2.6H145.532L144.639 -1.61366L146.863 0.399998ZM156.629 0.399998L158.848 2.41802L163.41 -2.6H156.629V0.399998ZM145.989 12.104L143.769 10.086L142.101 11.9205L143.589 13.904L145.989 12.104ZM157.161 27V30H163.161L159.561 25.2L157.161 27ZM146.787 27L144.392 28.8066L145.292 30H146.787V27ZM137.905 16.1792L135.891 18.4212L140.354 22.4308L142.368 20.1888L137.905 16.1792ZM135.123 20.426V27H141.123V20.426H135.123ZM138.123 24H129.307V30H138.123V24ZM132.307 27V0.399998H126.307V27H132.307ZM129.307 3.4H138.123V-2.6H129.307V3.4ZM135.123 0.399998V10.052H141.123V0.399998H135.123ZM140.346 12.0657L149.086 2.41366L144.639 -1.61366L135.899 8.03834L140.346 12.0657ZM146.863 3.4H156.629V-2.6H146.863V3.4ZM154.409 -1.61802L143.769 10.086L148.208 14.122L158.848 2.41802L154.409 -1.61802ZM143.589 13.904L154.761 28.8L159.561 25.2L148.389 10.304L143.589 13.904ZM157.161 24H146.787V30H157.161V24ZM149.182 25.1934L142.532 16.3774L137.742 19.9906L144.392 28.8066L149.182 25.1934Z" fill="#00A4DB"/>
</svg>
